<svg fill="none" xmlns="http://www.w3.org/2000/svg" viewBox="0 0 27 27">
  <path d="M13.5 25.778c6.904 0 12.5-5.597 12.5-12.5 0-6.904-5.596-12.5-12.5-12.5S1 6.374 1 13.278a12.45 12.45 0 002.89 7.995L2.39 25.778l5.646-1.255a12.45 12.45 0 005.465 1.255z" fill="#fff"/>
  <path d="M4 21.5l-1.5 4 5.5-1c2.8.8 5.833 1 7 1l3-.557 2-1.443 1.5-1 2-2 1-1.5.5-1.5 1-4-.5-1.5v-2L25 8.5 24 7l-.5-1L21 3.5 18.5 2 16 1.5 13.5 1l-3 .5-2 .5-2 1L4 5.5l-1.5 2-1 2.5v5l1 4 1 1.5.5 1z" fill="#fff"/>
  <path d="M13.5 25.778c6.904 0 12.5-5.597 12.5-12.5 0-6.904-5.596-12.5-12.5-12.5S1 6.374 1 13.278a12.45 12.45 0 002.89 7.995L2.39 25.778l5.646-1.255a12.45 12.45 0 005.465 1.255z" stroke="#fff"/>
  <path d="M13.5 25.778c6.904 0 12.5-5.597 12.5-12.5 0-6.904-5.596-12.5-12.5-12.5S1 6.374 1 13.278a12.45 12.45 0 002.89 7.995L2.39 25.778l5.646-1.255a12.45 12.45 0 005.465 1.255z" stroke="url(#paint0_linear)"/>
  <path d="M4 21.5l-1.5 4 5.5-1c2.8.8 5.833 1 7 1l3-.557 2-1.443 1.5-1 2-2 1-1.5.5-1.5 1-4-.5-1.5v-2L25 8.5 24 7l-.5-1L21 3.5 18.5 2 16 1.5 13.5 1l-3 .5-2 .5-2 1L4 5.5l-1.5 2-1 2.5v5l1 4 1 1.5.5 1z" stroke="#fff"/>
  <path d="M4 21.5l-1.5 4 5.5-1c2.8.8 5.833 1 7 1l3-.557 2-1.443 1.5-1 2-2 1-1.5.5-1.5 1-4-.5-1.5v-2L25 8.5 24 7l-.5-1L21 3.5 18.5 2 16 1.5 13.5 1l-3 .5-2 .5-2 1L4 5.5l-1.5 2-1 2.5v5l1 4 1 1.5.5 1z" stroke="url(#paint1_linear)"/>
  <path fill-rule="evenodd" clip-rule="evenodd" d="M11.732 7.122c-.12-.572-.35-.627-.559-.675-.17-.04-.366-.078-.562-.115-.194-.037-.528-.02-.858.247-.331.264-1.238.886-1.536 2.447-.298 1.559.47 3.269.574 3.508.108.237 1.365 3.902 4.109 5.744 2.282 1.53 2.828 1.417 3.375 1.467.55.049 1.887-.434 2.273-1.13.386-.691.507-1.325.46-1.472-.047-.147-.228-.263-.493-.479-.263-.215-1.562-1.256-1.812-1.415-.25-.155-.435-.245-.692.033-.256.279-.957.886-1.169 1.065-.212.178-.387.172-.652-.04-.262-.216-1.145-.731-2.062-2.026-.713-1.008-1.106-2.157-1.217-2.508-.111-.349.074-.492.252-.623.16-.115.366-.314.55-.471.18-.158.253-.279.393-.472.137-.192.124-.387.082-.56-.042-.173-.314-1.848-.456-2.525z" fill="#3B181E"/>
  <defs>
    <linearGradient id="paint0_linear" x1="13.75" y1="1" x2="13.75" y2="25.5" gradientUnits="userSpaceOnUse">
      <stop stop-color="#fff"/>
      <stop offset="1" stop-color="#fff" stop-opacity="0"/>
    </linearGradient>
    <linearGradient id="paint1_linear" x1="13.75" y1="1" x2="13.75" y2="25.5" gradientUnits="userSpaceOnUse">
      <stop stop-color="#fff"/>
      <stop offset="1" stop-color="#fff" stop-opacity="0"/>
    </linearGradient>
  </defs>
</svg>
