<svg width="27" height="27" viewBox="0 0 27 27" fill="none" xmlns="http://www.w3.org/2000/svg">
<path d="M13.5 25.7778C20.4036 25.7778 26 20.1814 26 13.2778C26 6.37427 20.4036 0.777832 13.5 0.777832C6.59644 0.777832 1 6.37427 1 13.2778C1 16.3185 2.08572 19.1057 3.89063 21.2727L2.38892 25.7778L8.03516 24.5231C9.68605 25.3269 11.5404 25.7778 13.5 25.7778Z" fill="white"/>
<path d="M4 21.5L2.5 25.5L8 24.5C10.8 25.3 13.8333 25.5 15 25.5L18 24.9433L20 23.5L21.5 22.5L23.5 20.5L24.5 19L25 17.5L26 13.5L25.5 12V10L25 8.5L24 7L23.5 6L21 3.5L18.5 2L16 1.5L13.5 1L10.5 1.5L8.5 2L6.5 3L4 5.5L2.5 7.5L1.5 10V15L2.5 19L3.5 20.5L4 21.5Z" fill="white"/>
<path d="M13.5 25.7778C20.4036 25.7778 26 20.1814 26 13.2778C26 6.37427 20.4036 0.777832 13.5 0.777832C6.59644 0.777832 1 6.37427 1 13.2778C1 16.3185 2.08572 19.1057 3.89063 21.2727L2.38892 25.7778L8.03516 24.5231C9.68605 25.3269 11.5404 25.7778 13.5 25.7778Z" stroke="white"/>
<path d="M13.5 25.7778C20.4036 25.7778 26 20.1814 26 13.2778C26 6.37427 20.4036 0.777832 13.5 0.777832C6.59644 0.777832 1 6.37427 1 13.2778C1 16.3185 2.08572 19.1057 3.89063 21.2727L2.38892 25.7778L8.03516 24.5231C9.68605 25.3269 11.5404 25.7778 13.5 25.7778Z" stroke="url(#paint0_linear)"/>
<path d="M4 21.5L2.5 25.5L8 24.5C10.8 25.3 13.8333 25.5 15 25.5L18 24.9433L20 23.5L21.5 22.5L23.5 20.5L24.5 19L25 17.5L26 13.5L25.5 12V10L25 8.5L24 7L23.5 6L21 3.5L18.5 2L16 1.5L13.5 1L10.5 1.5L8.5 2L6.5 3L4 5.5L2.5 7.5L1.5 10V15L2.5 19L3.5 20.5L4 21.5Z" stroke="white"/>
<path d="M4 21.5L2.5 25.5L8 24.5C10.8 25.3 13.8333 25.5 15 25.5L18 24.9433L20 23.5L21.5 22.5L23.5 20.5L24.5 19L25 17.5L26 13.5L25.5 12V10L25 8.5L24 7L23.5 6L21 3.5L18.5 2L16 1.5L13.5 1L10.5 1.5L8.5 2L6.5 3L4 5.5L2.5 7.5L1.5 10V15L2.5 19L3.5 20.5L4 21.5Z" stroke="url(#paint1_linear)"/>
<path fill-rule="evenodd" clip-rule="evenodd" d="M11.7319 7.12213C11.6129 6.55018 11.3825 6.49534 11.1734 6.44728C11.003 6.40662 10.807 6.36916 10.6109 6.33171C10.4173 6.29471 10.0828 6.31198 9.75324 6.5791C9.42179 6.84315 8.51511 7.46535 8.21691 9.02627C7.91922 10.5846 8.68638 12.2949 8.79123 12.5341C8.899 12.7711 10.1558 16.4363 12.9 18.2782C15.1821 19.8071 15.7279 19.695 16.2752 19.7454C16.8255 19.7937 18.1623 19.3105 18.5484 18.6159C18.934 17.9239 19.0552 17.2896 19.008 17.1426C18.9608 16.9956 18.7797 16.8799 18.5148 16.6642C18.2523 16.449 16.9533 15.4082 16.7026 15.2494C16.4539 15.0936 16.2678 15.004 16.0114 15.2824C15.755 15.5607 15.0543 16.1682 14.8421 16.3468C14.6298 16.5254 14.4554 16.5191 14.19 16.3061C13.9275 16.0909 13.0449 15.576 12.1282 14.2808C11.4149 13.2734 11.0222 12.1243 10.9112 11.773C10.7997 11.4243 10.9851 11.2812 11.1631 11.1502C11.3232 11.0347 11.5293 10.8359 11.7123 10.6788C11.893 10.5212 11.9663 10.4 12.106 10.2075C12.2432 10.0146 12.2302 9.81999 12.188 9.6469C12.1458 9.4738 11.8737 7.79853 11.7319 7.12213Z" fill="#3B181E"/>
<defs>
<linearGradient id="paint0_linear" x1="13.75" y1="1" x2="13.75" y2="25.5" gradientUnits="userSpaceOnUse">
<stop stop-color="white"/>
<stop offset="1" stop-color="white" stop-opacity="0"/>
</linearGradient>
<linearGradient id="paint1_linear" x1="13.75" y1="1" x2="13.75" y2="25.5" gradientUnits="userSpaceOnUse">
<stop stop-color="white"/>
<stop offset="1" stop-color="white" stop-opacity="0"/>
</linearGradient>
</defs>
</svg>
