<svg width="27" height="27" viewBox="0 0 27 27" xmlns="http://www.w3.org/2000/svg">
<path d="M11.7319 7.12213C11.6129 6.55018 11.3825 6.49534 11.1734 6.44728C11.003 6.40662 10.807 6.36916 10.6109 6.33171C10.4173 6.29471 10.0828 6.31198 9.75324 6.5791C9.42179 6.84315 8.51511 7.46535 8.21691 9.02627C7.91922 10.5846 8.68638 12.2949 8.79123 12.5341C8.899 12.7711 10.1558 16.4363 12.9 18.2782C15.1821 19.8071 15.7279 19.695 16.2753 19.7454C16.8255 19.7937 18.1623 19.3105 18.5484 18.6159C18.934 17.9239 19.0552 17.2896 19.008 17.1426C18.9608 16.9956 18.7797 16.8799 18.5148 16.6642C18.2523 16.449 16.9533 15.4082 16.7026 15.2494C16.4539 15.0936 16.2678 15.004 16.0114 15.2824C15.755 15.5607 15.0543 16.1682 14.8421 16.3468C14.6298 16.5254 14.4554 16.5191 14.19 16.3061C13.9275 16.0909 13.0449 15.576 12.1282 14.2808C11.4149 13.2734 11.0222 12.1243 10.9112 11.773C10.7997 11.4243 10.9851 11.2812 11.1631 11.1502C11.3232 11.0347 11.5293 10.8359 11.7123 10.6788C11.893 10.5212 11.9663 10.4 12.106 10.2075C12.2432 10.0146 12.2302 9.81999 12.188 9.6469C12.1458 9.4738 11.8737 7.79853 11.7319 7.12213Z" fill="white"/>
<path d="M3.89063 21.2727L4.36497 21.4308L4.45302 21.1667L4.27482 20.9527L3.89063 21.2727ZM2.38892 25.7778L1.91457 25.6197L1.63532 26.4575L2.49738 26.2659L2.38892 25.7778ZM8.03516 24.5231L8.25404 24.0736L8.09709 23.9972L7.9267 24.035L8.03516 24.5231ZM25.5 13.2778C25.5 19.9052 20.1274 25.2778 13.5 25.2778V26.2778C20.6797 26.2778 26.5 20.4575 26.5 13.2778H25.5ZM13.5 1.27783C20.1274 1.27783 25.5 6.65042 25.5 13.2778H26.5C26.5 6.09813 20.6797 0.277832 13.5 0.277832V1.27783ZM1.5 13.2778C1.5 6.65042 6.87258 1.27783 13.5 1.27783V0.277832C6.3203 0.277832 0.5 6.09813 0.5 13.2778H1.5ZM4.27482 20.9527C2.54196 18.8722 1.5 16.1973 1.5 13.2778H0.5C0.5 16.4397 1.62947 19.3392 3.50644 21.5927L4.27482 20.9527ZM2.86326 25.936L4.36497 21.4308L3.41629 21.1146L1.91457 25.6197L2.86326 25.936ZM7.9267 24.035L2.28045 25.2898L2.49738 26.2659L8.14363 25.0112L7.9267 24.035ZM13.5 25.2778C11.6178 25.2778 9.83822 24.8449 8.25404 24.0736L7.81629 24.9727C9.53387 25.8089 11.4629 26.2778 13.5 26.2778V25.2778Z" fill="white"/>
</svg>
